<?xml version="1.0" encoding="utf-8"?>
<!-- Generator: Adobe Illustrator 16.0.4, SVG Export Plug-In . SVG Version: 6.00 Build 0)  -->
<!DOCTYPE svg PUBLIC "-//W3C//DTD SVG 1.1//EN" "http://www.w3.org/Graphics/SVG/1.1/DTD/svg11.dtd">
<svg version="1.1" id="Layer_1" xmlns="http://www.w3.org/2000/svg" xmlns:xlink="http://www.w3.org/1999/xlink" x="0px" y="0px"
	 width="504px" height="174.05px" viewBox="108.236 273.475 504 174.05" enable-background="new 108.236 273.475 504 174.05"
	 xml:space="preserve">
<path fill="#42444C" d="M335.137,317.435c-18.647,0-31.179,9.888-31.179,24.605c0,16.214,14.692,19.998,27.655,23.335
	c11.213,2.889,20.898,5.381,20.898,14.784c0,4.608-1.913,8.45-5.528,11.11c-3.722,2.736-9.168,4.183-15.746,4.183
	c-12.455,0-22.365-7.144-22.466-7.208c-0.235-0.156-0.516-0.239-0.804-0.239c-0.111,0-0.224,0.013-0.336,0.038
	c-0.392,0.09-0.716,0.338-0.879,0.667l-3.223,5.749c-0.259,0.525-0.04,1.134,0.504,1.439c0.447,0.248,11.146,7.562,28.011,7.562
	c9.246,0,17.579-2.434,23.466-6.851c6.455-4.839,9.863-11.837,9.863-20.238c0-16.882-14.976-20.479-28.19-23.652
	c-10.782-2.589-20.093-4.825-20.093-13.523c0-6.82,4.882-14.108,18.585-14.108c10.433,0,19.783,4.284,19.797,4.294
	c0.23,0.141,0.496,0.216,0.768,0.216c0.107,0,0.215-0.012,0.321-0.035c0.374-0.083,0.688-0.305,0.86-0.609l2.971-5.112
	c0.325-0.572,0.063-1.268-0.584-1.557C359.418,322.113,350.078,317.435,335.137,317.435"/>
<path fill="#42444C" d="M428.343,318.703h-58.924c-0.707,0-1.276,0.572-1.276,1.277v5.985c0,0.706,0.569,1.277,1.276,1.277h21.876
	v73.899c0,0.705,0.572,1.277,1.277,1.277h12.358c0.701,0,1.274-0.572,1.274-1.277v-73.899h22.137c0.705,0,1.275-0.571,1.275-1.277
	v-5.985C429.618,319.275,429.048,318.703,428.343,318.703"/>
<path fill="#42444C" d="M487.797,318.325h-48.259c-0.703,0-1.275,0.573-1.275,1.278v81.161c0,0.705,0.572,1.275,1.275,1.275h48.259
	c0.707,0,1.278-0.57,1.278-1.275v-6.895c0-0.706-0.571-1.275-1.278-1.275h-34.621v-30.027h30.589c0.707,0,1.28-0.573,1.28-1.278
	v-5.851c0-0.706-0.573-1.277-1.28-1.277h-30.589v-27.295h34.621c0.707,0,1.278-0.572,1.278-1.278v-5.984
	C489.075,318.897,488.504,318.325,487.797,318.325"/>
<path fill="#42444C" d="M528.131,318.324h-26.354c-0.705,0-1.279,0.573-1.315,1.491v81.136c0.036,0.493,0.61,1.065,1.315,1.065
	h12.355c0.707,0,1.278-0.572,1.278-1.277l-0.036-38.183h7.604c8.65,0,17.65,6.771,19.763,20.885
	c1.069,7.168,2.478,19.354,17.648,19.354c2.45,0,4.529-0.524,4.529-1.859v-4.272c0-1.236-0.542-1.364-1.512-1.364
	c-8.683,0-7.186-13.048-9.687-22.278c-2.596-9.576-7.271-11.789-13.977-14.224c1.752-0.589,17.628-4.162,17.628-19.385
	C557.374,323.315,539.694,318.324,528.131,318.324 M515.412,326.864h10.115c10.606,0,16.42,5.389,16.42,13.6
	c0,6.104-3.705,13.808-16.067,13.684h-10.504L515.412,326.864z"/>
<path fill="#42444C" d="M195.27,317.541c-25.585,0-39.716,19.258-39.716,43.014s17.044,43.012,39.716,43.012
	c22.669,0,39.716-19.256,39.716-43.012C234.985,336.798,220.853,317.541,195.27,317.541 M195.271,397.114h-0.004
	c-12.909,0-23.954-9.632-23.954-36.562c0-26.928,11.045-36.56,23.954-36.56h0.004c12.909,0,23.954,9.632,23.954,36.56
	C219.225,387.482,208.18,397.114,195.271,397.114"/>
<path fill="#42444C" d="M242.537,318.162h-10.448c-0.429,0-0.827,0.233-1.033,0.606c-0.208,0.375-0.195,0.83,0.038,1.19
	l29.709,46.226l-19.873,34.198c-0.21,0.36-0.21,0.805,0.003,1.168c0.208,0.36,0.599,0.581,1.022,0.581h12.723
	c0.425,0,0.819-0.223,1.03-0.59l46.977-81.564c0.205-0.361,0.203-0.805-0.005-1.166c-0.213-0.36-0.602-0.582-1.023-0.582h-11.98
	c-0.425,0-0.821,0.229-1.027,0.595l-21.166,37.204l-23.949-37.324C243.318,318.367,242.94,318.162,242.537,318.162"/>
<path fill="#42444C" d="M612.236,447.525h-504v-174.05h504V447.525z M117.308,438.451h485.856V282.548H117.308V438.451z"/>
</svg>
