<?xml version="1.0" encoding="utf-8"?>
<!-- Generator: Adobe Illustrator 17.1.0, SVG Export Plug-In . SVG Version: 6.00 Build 0)  -->
<!DOCTYPE svg PUBLIC "-//W3C//DTD SVG 1.1//EN" "http://www.w3.org/Graphics/SVG/1.1/DTD/svg11.dtd">
<svg version="1.1" id="Layer_1" xmlns="http://www.w3.org/2000/svg" xmlns:xlink="http://www.w3.org/1999/xlink" x="0px" y="0px"
	 viewBox="50 60 1906 291" enable-background="new 50 60 1906 291" xml:space="preserve" width="1906" height="291">
<g>
	<g>
		<path fill="#5988C0" d="M1955.3,98.6c-0.1-21.1-19.9-39.5-41-38c-51.3,0-102.7,0-154,0c-19.6,0.4-36.7,17.6-37.4,37.1
			c-0.2,15.6-0.2,31.2,0,46.8c-23.5,0.4-47.1-0.1-70.6,0.2c-19.5,1-36.4,18.4-36.7,37.9c-0.1,41.7,0,83.4,0,125
			c0,10.9,4.8,21.6,12.9,28.9c7.4,7,17.7,10.7,27.9,10.5c44.3,0,88.7,0,133,0c8.9-0.2,18,0.6,26.9-0.8c17.3-3.1,31.3-19,31.9-36.7
			c0.1-15.6-0.1-31.2,0.1-46.8c23.3,0,46.7,0.1,70.1,0c19.4-0.7,36.5-17.8,37.1-37.2C1955.3,183.2,1955.2,140.9,1955.3,98.6z
			 M1830,308.7c-0.4,11.1-10.6,20.5-21.7,20.4c-50.7,0.1-101.3,0-152,0c-8.9,0.3-17.7-5.2-21.1-13.5c-2-4.4-1.7-9.3-1.7-14
			c0-39.3,0-78.7,0-118c0.2-11.3,10.4-21.1,21.7-21c22.5,0,45.1-0.2,67.6,0.1c-0.2,15.9,0,31.9-0.1,47.9c0.1,9-0.9,18.4,2.7,27
			c5.5,14.6,20.2,25.1,35.9,25.3c22.9,0,45.8,0,68.7,0C1830,278.1,1830.1,293.4,1830,308.7z M1763.2,244.8
			c-8.5,0.4-16.8-4.9-20.4-12.6c-2-3.9-2.2-8.3-2.1-12.6c0.1-19,0-38,0-57c22.5,0,45,0,67.5,0c8.7,0,16.9,5.7,20.1,13.7
			c2.1,4.8,1.4,10.2,1.5,15.3c0,17.7-0.1,35.4,0,53.1C1807.8,245,1785.5,244.7,1763.2,244.8z M1937.4,222.6
			c0.2,8.8-5.4,17.5-13.7,20.7c-3.9,1.7-8.3,1.6-12.4,1.6c-21.1,0-42.2,0-63.2,0c-0.1-20.7,0-41.4,0-62.2
			c-0.4-17.7-14.1-33.9-31.6-37.2c-9-1.6-18.1-0.5-27.2-0.8c-16.2,0-32.3,0-48.5,0c0-14.7,0-29.3,0-44c-0.1-8.6,5.3-16.8,13.2-20.2
			c3.8-1.9,8.2-1.8,12.4-1.8c49.7,0,99.3,0,149,0c8.5-0.3,16.8,5.1,20.1,12.8c2.6,5.3,1.9,11.5,2.1,17.2
			C1937.4,146.6,1937.6,184.6,1937.4,222.6z"/>
		<path fill="#5988C0" d="M125.4,188.2c19-2.6,38.6-0.3,56.8,5.8c3.4,1.1,6.7,2.4,10.2,3c3.4,0.8,6.3-2,9.7-1.4
			c0.7,12.2,1.6,24.4,2.3,36.6c-1.7,0-3.4,0-5.1-0.1c-4.6-13.1-14-24.6-26.4-31.1c-16.3-8.7-36-9.2-53.6-4.1
			c-13.3,3.9-24.9,12.9-32.2,24.6c-11.3,17.2-14.2,38.8-11.1,58.9c2.4,15.7,9.6,30.5,20.5,42c9.6,10.4,22.2,18.3,36.3,20.8
			c16.7,3,34.8,0.3,49.1-9c10.4-6.7,18.3-16.5,24.3-27.1c1.6,0,3.3,0,5,0c-3.7,12.9-9.2,25.3-15.9,36.9c-3.6-0.3-7.2-0.5-10.8,0.3
			c-6.7,1.4-13.4,2.7-20.1,4c-23.6,5-49.4,3.6-71.2-7.6c-15.7-7.9-28.4-21.3-35.5-37.4c-12.4-28.6-7.3-64.4,13.8-87.6
			C85.3,200.3,105.1,191,125.4,188.2L125.4,188.2z"/>
		<path fill="#5988C0" d="M384.2,245.4c2-0.8,4.2-0.9,6.3-0.9c0,6.7,0,13.3,0,20c10.8-7.4,22-14.6,34.7-18.4
			c7.6-2.3,16.4-2.2,23.2,2.3c5.6,3.6,9.1,9.7,10.5,16.1c10-6.4,20.2-12.8,31.3-17.1c6.6-2.6,14.1-3.9,21-1.5
			c6.1,1.9,10.7,7,13.1,12.8c3.7,8.8,4,18.5,3.8,28c0.1,14.6-0.2,29.3-0.7,43.9c-0.2,3.6,1.1,7.7,4.5,9.5c5.1,2.8,11.2,1.5,16.7,1.8
			c0,1.7-0.1,3.3-0.1,5c-18.8,0-37.6,0.1-56.4,0c0-1.6,0-3.3-0.1-5c5.1-0.1,11,0.2,15.1-3.5c1.9-2.5,2.2-5.8,2.8-8.8
			c1.9-14.9,1-29.9,1.2-44.9c0.1-8-0.5-16.7-5.3-23.5c-3.8-5.4-11-7.1-17.2-5.8c-10.7,2-20,8-29.1,13.5c-0.3,17.2,0,34.5-0.1,51.8
			c0.1,5.6-0.5,11.7,2.2,16.9c2.8,4.5,8.8,4.1,13.4,4.5c-0.1,1.6-0.2,3.3-0.2,5c-17.1-0.2-34.2,0-51.4-0.1c0-1.7,0-3.3,0-5
			c5.8,0,12.6-1,16.2-6.1c2.8-4.5,2.8-10,2.8-15.2c0-15,0-30,0-44.9c0-7-2.8-14.5-8.9-18.3c-5.2-3.2-11.7-2.9-17.3-1.1
			c-9.2,3-17.6,7.9-25.5,13.4c0.1,17.6,0,35.3,0,52.9c0.1,5.5-0.4,11.9,3.5,16.3c3.8,3.4,9.3,2.8,14,3c0,1.6,0,3.3,0,5
			c-17.5,0-35,0.3-52.4-0.1c0-1.6,0.1-3.1,0.1-4.7c5-0.2,10.8-0.6,14.2-4.8c3.5-4.3,3.5-10.2,3.5-15.5c-0.1-17,0-34,0-51
			c0-3.2-0.5-7.1-3.8-8.6c-4.2-1.8-8.9-1.5-13.2-2.5c0-1.5,0-3,0.1-4.5C365.8,251.9,375,248.7,384.2,245.4L384.2,245.4z"/>
		<path fill="#5988C0" d="M583,245.2c1.8-0.6,3.7-0.6,5.5-0.7c0,6.6,0,13.3,0,20c10.6-7.2,21.5-14.3,33.8-18.1
			c7.2-2.3,15.5-2.7,22.3,1c6.5,3.4,10.8,10,12.2,17.1c9.8-6.2,19.7-12.5,30.6-16.8c6.5-2.7,13.9-4.1,20.8-2.1
			c6.5,1.6,11.5,6.9,14,13.1c4.1,9.8,3.9,20.6,3.8,31c0.1,13.6-0.2,27.3-0.7,40.9c-0.2,3.6,1,7.7,4.5,9.5c5.1,2.7,11.1,1.5,16.6,1.7
			c0,1.7,0,3.4,0,5.1c-18.8,0.1-37.7,0-56.5,0c0-1.7,0-3.4,0-5c4.7,0,9.7,0.2,13.8-2.5c2.8-1.8,3.1-5.5,3.8-8.5
			c2.1-15.3,1.2-30.8,1.4-46.2c0.1-8-0.5-16.8-5.3-23.5c-3.8-5.3-11.1-7.1-17.3-5.8c-10.7,2-20,8-29.1,13.6
			c-0.2,17.3,0,34.5-0.1,51.8c0.1,5.6-0.5,11.7,2.2,16.8c2.8,4.4,8.8,4.1,13.4,4.5c-0.1,1.7-0.1,3.3-0.2,5
			c-17.1-0.1-34.3,0-51.4-0.1c0-1.7,0-3.3,0-5c4.9,0,10.3-0.6,14.2-4c3.8-3.2,4.5-8.6,4.7-13.2c0.1-15.7,0-31.4,0-47.1
			c0.7-9-3.7-19.5-13.1-22c-6.7-1.9-13.6,0.5-19.7,3.1c-6.7,3-13,6.7-19,10.9c0.2,16.9,0,33.9,0.1,50.8c0.1,5.5-0.5,11.5,2.2,16.5
			c3.2,5.2,10.1,4.6,15.3,4.8c0,1.6,0,3.3,0,5c-17.4,0.1-34.8-0.1-52.2,0.1c-0.1-1.7-0.2-3.3-0.2-5c4.6-0.2,9.6-0.5,13.2-3.6
			c3.8-3.4,4.4-8.9,4.5-13.7c0-18,0-36,0-54c-0.1-3.1-0.4-7-3.6-8.5c-4.2-1.8-9-1.6-13.4-2.5c0-1.5,0.1-3,0.1-4.5
			C564.1,251.9,573.5,248.5,583,245.2L583,245.2z"/>
		<path fill="#5988C0" d="M953.3,245.5c8.8-2.2,19.3-0.4,25.4,6.7c5.8,6.8,7.5,15.9,8,24.6c0.4,17.6-0.3,35.3-1.7,52.9
			c-0.2,3.3-0.2,7.3,2.7,9.4c4.7,3.6,11,2.7,16.5,2.7c0,1.7,0,3.4,0,5.1c-18,0-36,0-54,0c0-1.6,0-3.3,0-4.9
			c5.2-0.3,11.3-1.1,14.8-5.5c2-3.6,2.4-7.8,2.9-11.8c1.7-14.6,1.7-29.3,1.7-44c0-6.7-0.9-14-5.2-19.4c-5.5-6.8-15.6-8.1-23.2-4.4
			c-8.7,3.5-16.5,8.7-24.3,13.9c0,18,0,35.9,0,53.9c0.2,4.9,0.3,10.6,4,14.3c3.5,3,8.5,2.8,12.8,3c0,1.7-0.2,3.3-0.2,5
			c-16.8-0.2-33.6,0-50.4-0.1c0-1.7,0-3.3,0-5c4.2-0.1,8.6-0.6,12-3.4c3.6-2.8,4.8-7.6,4.8-11.9c0-18.7,0-37.4,0-56
			c-0.1-2.8-0.4-6.3-3.3-7.5c-4.1-1.7-8.5-2-12.7-3.3c0-1.4,0.1-2.8,0.1-4.2c8.6-3.2,17.3-6.2,25.9-9.5c2.2-0.9,4.6-1.1,6.9-1.4
			c0.5,6.4,0.1,12.9,0.3,19.4C928.8,257.4,939.8,248.6,953.3,245.5L953.3,245.5z"/>
		<path fill="#5988C0" d="M1357.9,251.1c8.5-4.4,18.2-8.1,27.9-5.9c6.6,1.2,12.3,5.6,15.4,11.6c4.6,8.8,5.1,19,4.9,28.8
			c0.1,14.7-0.6,29.3-1.8,44c-0.3,3.2-0.3,7.1,2.6,9.4c4.6,3.8,11,2.8,16.6,2.9c0,1.7,0,3.4,0.1,5.1c-18,0-36.1,0.1-54.1-0.1
			c0-1.6,0-3.2,0.1-4.8c5-0.4,10.6-1.1,14.3-4.8c2.2-3,2.6-6.9,3.2-10.4c1.9-15.3,2-30.7,2-46.1c0-5.8-0.7-11.9-3.6-17.1
			c-4.2-7.6-14.2-10.7-22.2-7.7c-9.8,3.3-18.4,9.2-27,14.9c0,17,0,34,0,50.9c0.1,5.6-0.2,11.8,3.3,16.5c3.3,3.7,8.8,3.5,13.4,3.7
			c0,1.6,0,3.3,0.1,4.9c-16.9,0.2-33.8,0.1-50.7,0c0-1.6,0-3.2,0.1-4.9c4.5-0.1,9.5-0.8,12.9-4.2c3.2-3.1,4-7.9,3.9-12.2
			c0-18,0-36,0-54c-0.1-2.9,0-6.5-2.9-8.2c-4-2.2-8.9-1.9-13.1-3.6c-0.1-1.4-0.1-2.7-0.1-4c8.8-3.2,17.6-6.4,26.4-9.7
			c2.1-0.9,4.4-1,6.7-1c0,6.4,0,12.8,0,19.3C1343.5,259.9,1350.5,255.2,1357.9,251.1L1357.9,251.1z"/>
		<path fill="#5988C0" d="M338.8,287c-2.5-14.4-11.6-27.3-24.1-34.8c-11.2-6.9-25.1-8.8-38-6.9c-14.1,2-27.1,10-35.6,21.4
			c-7.6,10.2-10.4,23.4-9.3,36c1,14.3,8.9,27.7,20,36.5c12.4,9.8,29.2,12.2,44.6,10c14.9-2.4,28.1-12,36.1-24.6
			C339.3,313.5,340.8,299.7,338.8,287z M320.5,304.6c0.1,10.7-3.8,21.4-10.8,29.5c-5,5.9-12.6,9.7-20.5,9.5
			c-8.9,0.2-17.1-4.6-23.2-10.8c-10-9.6-14.4-23.6-15.2-37.1c-1-10,0.6-20.6,6.3-29.1c4.9-7.6,12.5-14.1,21.7-15.4
			c8.9-1.2,18.1,2.2,24.5,8.4C315.4,271.1,321,288.1,320.5,304.6z"/>
		<path fill="#5988C0" d="M865.8,296.6c0.2-15.5-7-30.7-19.1-40.4c-12-10.1-28.7-13.3-43.9-10.9c-13.8,2-26.6,9.8-35,20.8
			c-8.1,10.5-10.9,24.4-9.7,37.4c1.1,13.2,8.2,25.5,18.2,34.2c10.1,8.8,23.8,12.5,37,12.2c14.2,0.3,28.4-5.8,38.1-16.2
			C861.2,324.1,866.3,310.3,865.8,296.6z M841.9,325.2c-4.1,8-10.7,15.4-19.7,17.6c-10.2,2.8-21.2-1.4-28.5-8.6
			c-10.5-9.5-15.7-23.7-16.5-37.6c-1-9.6,0.1-19.7,5-28.1c4.7-8.1,12.2-15.2,21.7-17.1c8.9-1.7,18.3,1.5,25,7.5
			c10,9.1,15.9,22.3,17.5,35.7C847.5,304.9,846.9,315.9,841.9,325.2z"/>
		<path fill="#5988C0" d="M1284.2,286.6c-2.5-14.4-11.9-27.3-24.4-34.7c-11.3-6.7-25-8.5-37.9-6.6c-12.4,1.8-23.9,8.4-32.3,17.6
			c-9.2,10.1-13.2,24.1-12.5,37.6c0.6,17.8,11.5,34.7,27.1,43.1c10.9,5.9,23.8,7.1,36,5.7c16-2.1,30.4-12.4,38.5-26.4
			C1285,312.1,1286.3,298.9,1284.2,286.6z M1260.4,326.6c-3.5,6.3-8.5,12.1-15.2,15c-8,3.4-17.6,2.6-25-1.9
			c-11-6.6-18.7-17.9-21.8-30.3c-2.4-10.3-3.5-21.3-0.9-31.6c3.4-12.4,13.1-24.1,26.2-26.5c9.2-1.5,18.7,2.1,25.3,8.5
			c11.4,11,17,27.1,17,42.8C1266.3,310.9,1264.6,319.3,1260.4,326.6z"/>
		<path fill="#5988C0" d="M1550,331.8c-4.6,1.1-9.4,3.9-14.2,2.1c-3.6-1.6-4-5.9-4-9.3c0-48.7-0.1-97.4,0-146.1
			c-11.8,3-23.4,6.8-35.1,10.1c0,1.5,0.1,3.1,0.2,4.6c4.9,0.6,9.9,0.7,14.7,2.1c2.6,0.8,3.3,3.8,3.2,6.2c-0.1,15.8,0,31.6,0,47.4
			c-13.4-4.9-28.7-6.3-42.3-1.4c-15.5,5.7-28.8,18.4-33.6,34.4c-4.6,15.4-3.8,32.7,4.2,46.9c3.9,7.3,9.7,14,17.3,17.6
			c8,3.8,17.5,4.5,25.8,1.7c10.4-3.4,19.5-9.7,28.6-15.7c-0.1,5.8-0.1,11.6,0,17.5c2-0.1,4.1-0.2,6-1c9.7-3.9,19.5-7.7,29.3-11.5
			C1550.1,335.6,1550,333.7,1550,331.8z M1514.7,326.5c-6.7,4.5-13.6,8.9-21.4,11.2c-7.5,2.3-16.1,1.2-22.5-3.6
			c-7.9-5.9-12.5-15.2-15.3-24.4c-4.4-15.8-2.8-34.2,7.5-47.5c6.6-8.8,18.9-12.3,29.4-9.6c9.1,2.3,16.3,9,21.6,16.5
			c1.1,1.3,0.8,3,0.9,4.5C1514.6,291.2,1514.9,308.9,1514.7,326.5z"/>
		<path fill="#5988C0" d="M1146.3,277.6c-6.8-10.4-18.4-16.2-29.8-20.2c10.9-3,21.6-10,25.9-20.9c3.7-10.2,1.6-22.3-5.4-30.6
			c-5.6-7-13.8-11.7-22.5-13.7c-16.7-4.2-34.1-3.8-51.2-3.4c-18,0.2-36,1.1-54,2c0,1.7,0,3.3,0,5c7.1,0.2,14.7-0.8,21.3,2.5
			c5.8,3.1,6.5,10.4,6.7,16.2c0,36.3,0,72.7,0,109c-0.2,5.2-0.6,11.6-5.6,14.5c-7.4,4.3-16.4,3.7-24.6,3.6c0,1.7-0.1,3.4-0.1,5.1
			c29.4,0,58.9,0,88.3,0c9.2,0.3,18.7-0.4,27.4-3.8c12.8-5.1,24.1-15.4,28.1-28.9C1154.4,302.1,1153.8,288.1,1146.3,277.6z
			 M1058.4,194.6c13.6-0.6,27.7-2.3,41.1,1.6c8.3,2.3,16,8.1,19.3,16.3c3.1,7.9,3.5,16.8,1.2,24.9c-1.9,7.1-7.5,12.9-14.3,15.5
			c-10.5,4.4-22.1,3.1-33.2,3.3c-4.7,0-9.4,0-14.1,0C1058.3,235.6,1058.2,215.1,1058.4,194.6z M1123.4,323.7
			c-3.7,6.1-9.6,10.5-16.2,12.9c-8.6,3.2-18,3.6-27,2.9c-5.9-0.6-12.2-2-16.4-6.6c-4.7-5.2-5.4-12.7-5.6-19.4c0-17.5,0-35,0-52.5
			c9.6,0,19.3-0.1,28.9,0.1c9.8,0.2,19.6,3.1,27.4,9.1c8.3,6,13.7,15.9,14.3,26.2C1129.4,305.8,1128.3,315.6,1123.4,323.7z"/>
	</g>
</g>
</svg>
